<svg width="91" height="32" viewBox="0 0 91 32" fill="none" xmlns="http://www.w3.org/2000/svg">
<path fill-rule="evenodd" clip-rule="evenodd" d="M33.3995 19.1971L30.9212 19.2206L30.3904 16.6497L33.545 16.6135L33.3995 19.1971ZM34.0458 19.1864L34.1871 16.6092L35.2293 16.5964L35.7879 19.1672L34.0458 19.1864ZM33.2989 21.0447H31.2978L31.056 19.8585L33.3695 19.835L33.2989 21.0447ZM28.9479 12.8415L30.6365 21.0468H28.4172L28.9479 12.8415ZM31.4498 21.7978H33.2561L33.2026 22.7835C32.6868 22.7835 32.171 22.8005 31.6552 22.8005L31.4498 21.7978ZM32.9821 13.217L32.98 13.3364L33.1427 14.5099L32.8388 14.6293L32.8794 15.7131L32.9115 15.9798L33.5793 15.967C33.6199 15.0475 33.6777 14.128 33.7269 13.2084C33.5579 13.2084 33.1769 13.2148 33.0078 13.2148L32.9821 13.217ZM33.6135 10.8275L33.0549 10.2472L32.9821 10.6184L32.9907 12.5791H33.0271C33.209 12.5791 33.5878 12.5727 33.7633 12.5727L33.6135 10.8275ZM34.2448 15.5851L34.5851 15.5041L34.9425 15.2779L34.8655 14.9216L34.3754 13.2042C34.3754 13.2319 34.369 13.2554 34.369 13.2916L34.2448 15.5851ZM31.3984 8.5724C31.7858 7.51206 31.5825 7.0427 31.544 5.58553L30.6536 6.08903H30.0351L29.1812 5.57487L28.3979 4.92629L27.6553 4.39719L26.9533 3.83395L26.8848 3.37739L27.0774 3.12564L26.9405 2.33625L26.0159 2.34478L25.9945 1.83488L28.3551 1.76661L28.3679 2.25945L27.4798 2.31918L27.4605 2.89095L27.85 3.04243L28.1154 3.22164L28.1625 3.57153C28.4536 3.93209 29.1662 4.5508 29.7163 4.73641L30.2855 4.6084L30.7649 3.91076L31.4048 3.33472L31.514 2.54106L31.743 2.40879L31.1416 2.09517L30.9597 1.44659L31.0089 0.990028L30.72 0.556932C30.9597 0.228377 31.2978 0.104635 31.5996 0.0427645C32.1689 -0.0852441 32.6697 0.081167 33.0464 0.785214L33.179 1.32498L33.1063 1.82848C33.6156 1.81782 33.9795 2.05677 34.2149 2.52613C34.5744 2.76295 34.9468 2.96136 34.8184 3.33472L34.4674 4.07717L34.4032 5.22284C34.3711 6.00369 34.324 6.24904 34.6429 6.94242C34.904 7.1451 34.9404 7.80861 35.041 8.33132L35.0474 9.99969L35.2529 10.979L35.8286 12.2441L36.5883 14.1514L36.2181 14.5397L36.4278 15.312L36.186 15.5489C36.1175 15.5958 35.5996 15.7942 35.5867 15.807L35.8543 16.4385L37.7269 25.0386L37.102 25.1708L36.7125 23.3873L33.8104 23.4235L33.7055 25.126C33.5172 25.1111 33.2861 25.1004 33.0977 25.0898L33.1683 23.4278C32.7039 23.4278 32.2545 23.4406 31.7901 23.4406L32.1261 25.1004C32.0234 25.1239 31.9206 25.1452 31.8136 25.1666L31.5012 25.2306L30.7778 21.7978H28.3701L28.1582 25.0556L27.5247 25.0279L28.4578 10.452L28.0448 8.44012L28.674 8.31211L28.7318 8.60013L31.3984 8.5724ZM31.0881 9.41726L31.1972 9.16337L29.1833 9.18257C29.1812 9.24871 29.1726 9.37245 29.1705 9.43646L31.0881 9.41726ZM31.4027 12.6004C31.3877 12.2569 31.3 10.0594 31.0496 10.0594L29.132 10.085L29.1191 10.2493C29.1149 10.4008 29.1084 10.4221 29.1384 10.5651C29.2797 11.2499 29.423 11.9348 29.56 12.6196C30.2556 12.6175 30.7071 12.6089 31.4027 12.6004ZM30.613 16.014L30.6408 15.9094L31.0753 15.4977L31.9313 15.3974L31.8222 14.5739L31.1737 14.4501L31.3663 13.2383L29.6991 13.2575L30.2577 15.9884C30.2663 16.0374 30.5359 16.014 30.613 16.014ZM33.8532 22.7771L34.0116 19.8372L35.927 19.8073L36.5712 22.7472L33.8532 22.7771ZM70.2446 25.0194H73.1467V6.70774L89.5639 25.0194H91V0.943091H88.0979V19.2568L71.7256 0.943091H70.2425V25.0194H70.2446ZM47.4347 16.9826L50.0136 11.1432L52.8429 4.74921L55.6508 11.0387L58.3004 16.9612L47.4347 16.9826ZM41.2432 25.0194H43.912L46.2897 19.6174L59.409 19.5961L61.8552 25.0194H64.5646L53.8959 0.943091H51.7878L41.2432 25.0194ZM2.82716 11.7534V3.531H13.8341C15.054 3.531 16.2952 3.78701 17.2241 4.62547C18.108 5.42339 18.4376 6.50506 18.4376 7.67207C18.4376 8.83482 18.1294 9.93569 17.2219 10.7144C16.261 11.5358 14.9084 11.7534 13.6821 11.7534H2.82716ZM87.1777 31.8827V27.3384H87.4751L90.4329 30.7349V27.3384H91V31.8827H90.7111L87.7448 28.4863V31.8827H87.1777ZM76.1665 31.8827L78.4008 27.3384H78.8717L81.1317 31.8827H80.5153L79.8968 30.6603H77.3778L76.7743 31.8827H76.1665ZM77.6346 30.129H79.6421L78.6341 28.1172L77.6346 30.129ZM66.2019 31.8827V27.3384H69.7866V27.8611H66.7669V29.1924H68.5924V29.7151H66.7669V31.3601H69.9707V31.8827H66.2019ZM55.9419 31.8827V27.3384H56.509V31.3601H59.486V31.8827H55.9419ZM49.7932 30.432L50.249 30.7691C50.0393 31.1638 49.7525 31.4689 49.3887 31.6801C49.027 31.8934 48.6139 32.0001 48.1495 32.0001C47.4668 32.0001 46.9039 31.7761 46.4588 31.328C46.0158 30.88 45.7911 30.3104 45.7911 29.6213C45.7911 28.93 46.0136 28.3604 46.4588 27.9102C46.9061 27.4622 47.469 27.2382 48.1474 27.2382C48.569 27.2382 48.9542 27.3299 49.3009 27.5134C49.6476 27.6969 49.9301 27.9593 50.1463 28.3006L49.6712 28.6377C49.5299 28.3668 49.3223 28.1534 49.0527 27.9998C48.783 27.8462 48.4813 27.7694 48.1495 27.7694C47.638 27.7694 47.2143 27.9444 46.8783 28.2942C46.5423 28.6441 46.3753 29.0879 46.3753 29.6213C46.3753 30.1568 46.5423 30.5984 46.8783 30.9483C47.2143 31.296 47.638 31.471 48.1495 31.471C48.5069 31.471 48.8237 31.3835 49.1019 31.2064C49.3801 31.0294 49.6113 30.7733 49.7932 30.432ZM28.0662 31.8827V27.3384H28.3637L31.3214 30.7349V27.3384H31.8885V31.8827H31.5996L28.6333 28.4863V31.8827H28.0662ZM17.055 31.8827L19.2893 27.3384H19.7602L22.0202 31.8827H21.4038L20.7853 30.6603H18.2642L17.6607 31.8827H17.055ZM18.5253 30.129H20.5328L19.5248 28.1172L18.5253 30.129ZM10.4397 31.8827V27.3128H11.0155V31.8827H10.4397ZM0 31.8827V27.3384H2.61529C3.06044 27.3384 3.40929 27.4515 3.66183 27.6755C3.91437 27.8996 4.04064 28.2068 4.04064 28.6036C4.04064 28.9322 3.94219 29.2138 3.7453 29.4485C3.54626 29.6831 3.28516 29.8303 2.96199 29.8879L4.10056 31.8849H3.47563L2.33492 29.8944H0.567145V31.8849H0V31.8827ZM0.567145 29.3631H2.5789C2.86569 29.3631 3.08184 29.2991 3.22952 29.1732C3.37719 29.0474 3.44995 28.8617 3.44995 28.6185C3.44995 28.3817 3.37719 28.194 3.22952 28.0617C3.08398 27.9294 2.87639 27.8611 2.60887 27.8611H0.567145V29.3631ZM0 25.0194H2.82716V14.3883H10.9919L19.4199 24.9916H22.5039L14.0823 14.3456L14.2899 14.3435C16.276 14.3157 18.5232 13.5946 19.8394 12.0372C20.9202 10.7571 21.3974 9.25938 21.3974 7.59313C21.3974 5.70074 20.8495 3.98756 19.4049 2.71388C17.8768 1.36552 15.8672 0.943091 13.8769 0.943091H0V25.0194Z" fill="#3F4623"/>
</svg>
